<svg width="32" height="32" viewBox="0 0 32 32" fill="none" xmlns="http://www.w3.org/2000/svg">
<g transform="translate(3, 3.5) scale(0.362)">
  <path d="M34.998,9.999 C20.332,9.999 8.333,21.999 8.333,36.665 C8.333,51.331 20.332,63.330 34.998,63.330 C49.664,63.330 61.663,51.331 61.663,36.665 C61.663,21.999 49.664,9.999 34.998,9.999 Z M34.998,58.593 C22.937,58.593 13.069,48.726 13.069,36.665 C13.069,24.604 22.937,14.736 34.998,14.736 C47.059,14.736 56.927,24.604 56.927,36.665 C56.927,48.726 47.059,58.593 34.998,58.593 Z" fill="#747474" fill-rule="nonzero"/>
  <circle cx="35.998" cy="14.666" r="11.666" fill="#747474"/>
  <circle cx="59.330" cy="51.331" r="11.666" fill="#747474"/>
  <circle cx="12.666" cy="51.331" r="11.666" fill="#747474"/>
</g>
</svg>
