<svg width="32" height="32" viewBox="0 0 32 32" fill="none" xmlns="http://www.w3.org/2000/svg">
<path d="M27.3093 23.8412C26.7549 23.8349 26.2081 23.9703 25.721 24.2346L21.3377 21.0072C21.7496 20.2092 21.9609 19.323 21.9533 18.4253C21.9519 17.1186 21.5167 15.8492 20.7157 14.8158C19.9148 13.7824 18.7934 13.0434 17.5269 12.7143V7.7472C18.112 7.47042 18.6081 7.03607 18.9594 6.49304C19.3107 5.95002 19.5033 5.31986 19.5154 4.67349C19.4779 3.78966 19.0999 2.95446 18.4604 2.34232C17.8208 1.73017 16.9692 1.38841 16.0833 1.38841C15.1974 1.38841 14.3457 1.73017 13.7062 2.34232C13.0666 2.95446 12.6886 3.78966 12.6511 4.67349C12.65 5.32285 12.8372 5.95865 13.19 6.50409C13.5429 7.04954 14.0464 7.48129 14.6396 7.7472V12.7143C13.3657 13.0431 12.2375 13.7858 11.4328 14.8253C10.6281 15.8648 10.1925 17.1421 10.1948 18.456C10.1932 19.3531 10.4041 20.2378 10.8104 21.0379L6.41482 24.2346C5.9231 23.9822 5.37933 23.8475 4.8265 23.8412C4.14655 23.8399 3.48154 24.0402 2.91568 24.4167C2.34982 24.7932 1.90857 25.3288 1.6478 25.9559C1.38704 26.5829 1.31849 27.2731 1.45084 27.9391C1.58319 28.6051 1.91049 29.2169 2.39128 29.697C2.87208 30.1771 3.48474 30.5039 4.15168 30.6361C4.81862 30.7682 5.50983 30.6998 6.13779 30.4394C6.76574 30.179 7.30218 29.7384 7.67918 29.1733C8.05618 28.6083 8.25677 27.9442 8.25555 27.2653C8.25555 27.0194 8.2063 26.8227 8.2063 26.6505L12.7866 23.2756C13.7712 23.9885 14.9563 24.3723 16.1725 24.3723C17.3888 24.3723 18.5739 23.9885 19.5585 23.2756L24.1388 26.6505C24.1002 26.8531 24.0837 27.0592 24.0895 27.2653C24.0699 27.7276 24.1442 28.189 24.3078 28.6219C24.4715 29.0548 24.7211 29.4501 25.0417 29.7841C25.3624 30.1182 25.7474 30.384 26.1736 30.5655C26.5998 30.7471 27.0583 30.8407 27.5217 30.8407C27.985 30.8407 28.4436 30.7471 28.8698 30.5655C29.296 30.384 29.681 30.1182 30.0016 29.7841C30.3223 29.4501 30.5719 29.0548 30.7355 28.6219C30.8992 28.189 30.9734 27.7276 30.9538 27.2653C30.8874 26.342 30.4758 25.4774 29.8007 24.8431C29.1255 24.2088 28.2362 23.8511 27.3093 23.8412ZM16.7143 21.3084C16.486 21.3627 16.2531 21.3956 16.0186 21.4068C15.3744 21.3893 14.7523 21.168 14.2423 20.7746C13.7322 20.3813 13.3604 19.8363 13.1806 19.2183C13.122 18.9682 13.089 18.7128 13.0821 18.456C13.081 17.9394 13.2186 17.4319 13.4806 16.9865C13.7427 16.541 14.1195 16.1739 14.5719 15.9233C15.0254 15.6604 15.5404 15.5219 16.0648 15.5219C16.5892 15.5219 17.1042 15.6604 17.5577 15.9233C18.012 16.1728 18.391 16.5394 18.6551 16.9848C18.9193 17.4303 19.0591 17.9383 19.0599 18.456C19.0488 18.7064 19.0158 18.9552 18.9614 19.1999C18.789 19.7085 18.4938 20.167 18.1019 20.5347C17.71 20.9025 17.2334 21.1682 16.7143 21.3084Z" fill="#747474"/>
</svg>
