<svg width="12" height="12" viewBox="0 0 12 12" fill="none" xmlns="http://www.w3.org/2000/svg">
<path fill-rule="evenodd" clip-rule="evenodd" d="M6.96925 0.738454C6.78463 0.599992 6.53078 0.530762 6.23078 0.530762C6.16155 0.530762 6.09232 0.530762 6.02309 0.553839C5.2154 0.669223 4.68463 1.43076 4.36155 2.12307C4.22309 2.44615 4.08462 2.7923 3.96924 3.13845C3.90001 3.29999 3.85385 3.46153 3.78462 3.62307C3.78462 3.64615 3.69232 3.96922 3.66924 3.96922H2.83847C2.72308 3.96922 2.63078 4.06153 2.63078 4.17692C2.63078 4.2923 2.72308 4.38461 2.83847 4.38461H3.55385L3.13847 6.11538C2.76924 8.00769 2.23847 10.2 2.1 10.5923C1.96154 10.9846 1.77693 11.1923 1.52308 11.1923C1.47693 11.1923 1.43077 11.1923 1.4077 11.1692C1.38462 11.1461 1.36154 11.1231 1.36154 11.0769C1.36154 11.0538 1.38462 10.9846 1.43077 10.9154C1.47693 10.8461 1.5 10.7538 1.5 10.6846C1.5 10.5231 1.45385 10.4077 1.33846 10.3154C1.24616 10.2231 1.13077 10.1769 0.99231 10.1769C0.853849 10.1769 0.738464 10.2231 0.623079 10.3154C0.507694 10.4077 0.46154 10.5461 0.46154 10.7077C0.46154 10.9385 0.553848 11.1231 0.738464 11.2846C0.92308 11.4461 1.15385 11.5154 1.45385 11.5154C1.93847 11.5154 2.40001 11.2846 2.72308 10.9154C2.93078 10.6846 3.06924 10.4077 3.2077 10.1077C3.62308 9.20769 3.83078 8.21538 4.06155 7.26922C4.29232 6.29999 4.52309 5.33076 4.73078 4.33845H5.53847C5.65386 4.33845 5.74617 4.24615 5.74617 4.13076C5.74617 4.01538 5.65386 3.92307 5.53847 3.92307H4.82309C5.2154 2.39999 5.67693 1.36153 5.76924 1.19999C5.93078 0.946146 6.09232 0.807685 6.25386 0.807685C6.32309 0.807685 6.36924 0.830762 6.39232 0.853839C6.4154 0.899993 6.4154 0.923069 6.4154 0.946146C6.4154 0.969223 6.39232 1.01538 6.34617 1.10768C6.30001 1.19999 6.27694 1.2923 6.27694 1.38461C6.27694 1.52307 6.32309 1.61538 6.4154 1.70768C6.50771 1.79999 6.62309 1.84615 6.76155 1.84615C6.90001 1.84615 7.0154 1.79999 7.10771 1.70768C7.20001 1.61538 7.24617 1.47692 7.24617 1.31538C7.26925 1.06153 7.17694 0.876916 6.96925 0.738454V0.738454ZM10.6384 5.35385C10.9384 5.35385 11.5153 5.12308 11.5153 4.33847C11.5153 3.57693 10.9615 3.53077 10.7999 3.53077C10.4538 3.53077 10.1307 3.78462 9.83071 4.29231C9.53071 4.82308 9.20763 5.37693 9.20763 5.37693C9.1384 5.0077 9.06917 4.7077 9.0461 4.56923C8.97686 4.24616 8.60763 3.55385 7.84609 3.55385C7.08455 3.55385 6.39224 3.99231 6.39224 3.99231C6.25378 4.08462 6.18455 4.22308 6.18455 4.38462C6.18455 4.63847 6.39224 4.84616 6.64609 4.84616C6.71532 4.84616 6.78455 4.82308 6.85378 4.8C6.85378 4.8 7.43071 4.47693 7.54609 4.8C7.59225 4.89231 7.61532 5.0077 7.6384 5.12308C7.77686 5.63077 7.91532 6.2077 8.03071 6.73847L7.52302 7.45385C7.52302 7.45385 6.96917 7.24616 6.66917 7.24616C6.36917 7.24616 5.79224 7.47693 5.79224 8.26154C5.79224 9.04616 6.34609 9.06924 6.50763 9.06924C6.85378 9.06924 7.17686 8.81539 7.47686 8.3077C7.77686 7.77693 8.09994 7.22308 8.09994 7.22308C8.19225 7.68462 8.28456 8.07693 8.33071 8.23847C8.51533 8.76924 8.95379 9.09231 9.55379 9.09231C9.55379 9.09231 10.1538 9.09231 10.8692 8.7C11.0307 8.63077 11.1692 8.46924 11.1692 8.26154C11.1692 8.0077 10.9615 7.8 10.7076 7.8C10.6384 7.8 10.5692 7.82308 10.4999 7.84616C10.4999 7.84616 9.99225 8.12308 9.83071 7.91539C9.71533 7.68462 9.59994 7.36154 9.53071 6.99231C9.46148 6.64616 9.36917 6.25385 9.29994 5.86154L9.80764 5.12308C9.78456 5.14616 10.3615 5.35385 10.6384 5.35385V5.35385Z" fill="#747474"/>
</svg>
