<svg width="32" height="32" viewBox="0 0 32 32" fill="none" xmlns="http://www.w3.org/2000/svg">
<path fill-rule="evenodd" clip-rule="evenodd" d="M28.6152 1.23077H3.3845C2.89219 1.23077 2.46143 1.66154 2.46143 2.15383V5.2307C2.46143 5.723 2.89219 6.15376 3.3845 6.15376H28.6152C29.1075 6.15376 29.5383 5.723 29.5383 5.2307V2.15383C29.5383 1.66154 29.1075 1.23077 28.6152 1.23077ZM8.92295 8.61652H3.3845C2.89219 8.61652 2.46143 9.04728 2.46143 9.53958V11.3857C2.46143 11.878 2.89219 12.3088 3.3845 12.3088H8.92295C9.41525 12.3088 9.84602 11.878 9.84602 11.3857V9.53958C9.84602 9.04728 9.41525 8.61652 8.92295 8.61652ZM18.7691 8.61652H13.2307C12.7384 8.61652 12.3076 9.04728 12.3076 9.53958V11.3857C12.3076 11.878 12.7384 12.3088 13.2307 12.3088H18.7691C19.2614 12.3088 19.6922 11.878 19.6922 11.3857V9.53958C19.6922 9.04728 19.2614 8.61652 18.7691 8.61652ZM28.6153 8.61652H23.0769C22.5846 8.61652 22.1538 9.04728 22.1538 9.53958V11.3857C22.1538 11.878 22.5846 12.3088 23.0769 12.3088H28.6153C29.1076 12.3088 29.5384 11.878 29.5384 11.3857V9.53958C29.5384 9.04728 29.1076 8.61652 28.6153 8.61652ZM8.92295 14.7689H3.3845C2.89219 14.7689 2.46143 15.1996 2.46143 15.6919V17.538C2.46143 18.0303 2.89219 18.4611 3.3845 18.4611H8.92295C9.41525 18.4611 9.84602 18.0303 9.84602 17.538V15.6919C9.84602 15.1996 9.41525 14.7689 8.92295 14.7689ZM18.7691 14.7689H13.2307C12.7384 14.7689 12.3076 15.1996 12.3076 15.6919V17.538C12.3076 18.0303 12.7384 18.4611 13.2307 18.4611H18.7691C19.2614 18.4611 19.6922 18.0303 19.6922 17.538V15.6919C19.6922 15.1996 19.2614 14.7689 18.7691 14.7689ZM28.6153 14.7689H23.0769C22.5846 14.7689 22.1538 15.1996 22.1538 15.6919V17.538C22.1538 18.0303 22.5846 18.4611 23.0769 18.4611H28.6153C29.1076 18.4611 29.5384 18.0303 29.5384 17.538V15.6919C29.5384 15.1996 29.1076 14.7689 28.6153 14.7689ZM8.92295 20.9199H3.3845C2.89219 20.9199 2.46143 21.3507 2.46143 21.843V23.6891C2.46143 24.1814 2.89219 24.6122 3.3845 24.6122H8.92295C9.41525 24.6122 9.84602 24.1814 9.84602 23.6891V21.843C9.84602 21.3507 9.41525 20.9199 8.92295 20.9199ZM18.7691 20.9199H13.2307C12.7384 20.9199 12.3076 21.3507 12.3076 21.843V23.6891C12.3076 24.1814 12.7384 24.6122 13.2307 24.6122H18.7691C19.2614 24.6122 19.6922 24.1814 19.6922 23.6891V21.843C19.6922 21.3507 19.2614 20.9199 18.7691 20.9199ZM28.6153 20.9199H23.0768C22.5845 20.9199 22.1538 21.3507 22.1538 21.843V23.6891C22.1538 24.1814 22.5845 24.6122 23.0768 24.6122H28.6153C29.1076 24.6122 29.5384 24.1814 29.5384 23.6891V21.843C29.5384 21.3507 29.1076 20.9199 28.6153 20.9199ZM8.92295 27.0771H3.3845C2.89219 27.0771 2.46143 27.5078 2.46143 28.0001V29.8462C2.46143 30.3385 2.89219 30.7693 3.3845 30.7693H8.92295C9.41525 30.7693 9.84602 30.3385 9.84602 29.8462V28.0001C9.84602 27.5078 9.41525 27.0771 8.92295 27.0771ZM18.7691 27.0771H13.2307C12.7384 27.0771 12.3076 27.5078 12.3076 28.0001V29.8462C12.3076 30.3385 12.7384 30.7693 13.2307 30.7693H18.7691C19.2614 30.7693 19.6922 30.3385 19.6922 29.8462V28.0001C19.6922 27.5078 19.2614 27.0771 18.7691 27.0771ZM28.6153 27.0771H23.0768C22.5845 27.0771 22.1538 27.5078 22.1538 28.0001V29.8462C22.1538 30.3385 22.5845 30.7693 23.0768 30.7693H28.6153C29.1076 30.7693 29.5384 30.3385 29.5384 29.8462V28.0001C29.5384 27.5078 29.1076 27.0771 28.6153 27.0771Z" fill="#747474"/>
</svg>
